<?xml version="1.0" standalone="no"?>
<!DOCTYPE svg PUBLIC "-//W3C//DTD SVG 20010904//EN"
 "http://www.w3.org/TR/2001/REC-SVG-20010904/DTD/svg10.dtd">
<svg version="1.0" xmlns="http://www.w3.org/2000/svg"
 width="317.000000pt" height="159.000000pt" viewBox="0 0 317.000000 159.000000"
 preserveAspectRatio="xMidYMid meet">

<g transform="translate(0.000000,159.000000) scale(0.100000,-0.100000)"
fill="#000000" stroke="none">
<path d="M1551 1565 c-41 -8 -79 -19 -85 -25 -5 -5 -18 -10 -27 -10 -10 0 -19
-4 -21 -8 -1 -4 -36 -31 -77 -60 -41 -29 -72 -52 -68 -52 3 0 -8 -15 -24 -32
-17 -18 -37 -46 -46 -63 -9 -16 -19 -32 -24 -35 -4 -3 -15 -43 -24 -89 -16
-79 -16 -124 2 -214 l6 -30 -39 29 c-21 16 -42 33 -46 38 -3 5 -13 11 -21 12
-8 1 -30 9 -48 17 -53 24 -165 40 -222 33 -29 -4 -63 -7 -77 -9 -14 -1 -27 -5
-30 -8 -3 -3 -25 -13 -50 -23 -130 -50 -214 -139 -246 -262 -25 -99 -16 -153
63 -350 3 -8 -41 -12 -151 -13 l-156 -2 -33 -34 c-19 -19 -38 -35 -43 -35 -15
0 -54 -99 -54 -136 0 -61 59 -146 128 -183 15 -8 408 -11 1428 -11 l1407 0 45
23 c68 33 139 108 144 151 4 38 -12 89 -38 117 -12 13 -13 22 -5 38 18 32 13
66 -15 107 -55 81 -92 104 -172 104 -57 0 -63 2 -58 18 10 29 -11 118 -36 157
-36 56 -122 110 -198 125 -55 11 -74 10 -125 -3 -33 -8 -62 -14 -64 -12 -2 2
6 16 17 32 21 31 64 135 81 198 14 51 14 129 1 177 -20 69 -160 248 -195 248
-8 0 -15 4 -17 8 -7 17 -117 54 -188 63 -81 10 -188 10 -195 -1 -2 -4 -28 -3
-57 2 -101 16 -270 18 -347 3z"/>
</g>
</svg>
